<?xml version="1.0" encoding="UTF-8"?>
<svg xmlns="http://www.w3.org/2000/svg"
    xmlns:xlink="http://www.w3.org/1999/xlink" width="64pt" height="64pt" viewBox="0 0 256 256" version="1.1">
    <g id="surface1">
        <path style=" stroke:none;fill-rule:nonzero;fill:rgb(0%,0%,0%);fill-opacity:1;" d="M 233.75 109.394531 C 236.511719 109.394531 238.75 107.15625 238.75 104.394531 C 238.75 101.632812 236.511719 99.394531 233.75 99.394531 L 214.808594 99.394531 L 214.808594 85.78125 L 233.75 85.78125 C 236.511719 85.78125 238.75 83.542969 238.75 80.78125 C 238.75 78.019531 236.511719 75.78125 233.75 75.78125 L 214.808594 75.78125 L 214.808594 67.601562 C 214.808594 66.277344 214.28125 65.003906 213.347656 64.066406 L 198.886719 49.597656 C 197.949219 48.660156 196.675781 48.132812 195.351562 48.132812 L 187.167969 48.132812 L 187.167969 29.207031 C 187.167969 26.445312 184.929688 24.207031 182.167969 24.207031 C 179.40625 24.207031 177.167969 26.445312 177.167969 29.207031 L 177.167969 48.132812 L 163.554688 48.132812 L 163.554688 29.207031 C 163.554688 26.445312 161.316406 24.207031 158.554688 24.207031 C 155.792969 24.207031 153.554688 26.445312 153.554688 29.207031 L 153.554688 48.132812 L 139.953125 48.132812 L 139.953125 30.214844 C 139.953125 13.554688 126.398438 0 109.734375 0 C 96.101562 0 84.253906 9.214844 80.640625 22.015625 C 70.25 23.070312 60.625 27.664062 53.195312 35.1875 C 44.804688 43.679688 40.183594 54.9375 40.183594 66.878906 C 40.183594 72.804688 41.351562 78.675781 43.597656 84.117188 C 36.578125 87.847656 30.554688 93.210938 25.992188 99.839844 C 20.273438 108.140625 17.25 117.878906 17.25 127.992188 C 17.25 146.613281 27.429688 163.316406 43.59375 171.882812 C 41.351562 177.316406 40.183594 183.179688 40.183594 189.105469 C 40.183594 201.050781 44.804688 212.304688 53.195312 220.800781 C 60.625 228.320312 70.25 232.914062 80.640625 233.972656 C 84.253906 246.78125 96.105469 256 109.734375 256 C 126.398438 256 139.953125 242.445312 139.953125 225.785156 L 139.953125 207.855469 L 153.554688 207.855469 L 153.554688 226.792969 C 153.554688 229.554688 155.792969 231.792969 158.554688 231.792969 C 161.316406 231.792969 163.554688 229.554688 163.554688 226.792969 L 163.554688 207.855469 L 177.167969 207.855469 L 177.167969 226.792969 C 177.167969 229.554688 179.40625 231.792969 182.167969 231.792969 C 184.929688 231.792969 187.167969 229.554688 187.167969 226.792969 L 187.167969 207.855469 L 195.351562 207.855469 C 196.675781 207.855469 197.949219 207.328125 198.886719 206.390625 L 213.34375 191.933594 C 214.28125 190.996094 214.808594 189.722656 214.808594 188.398438 L 214.808594 180.203125 L 233.75 180.203125 C 236.511719 180.203125 238.75 177.964844 238.75 175.203125 C 238.75 172.441406 236.511719 170.203125 233.75 170.203125 L 214.808594 170.203125 L 214.808594 156.605469 L 233.75 156.605469 C 236.511719 156.605469 238.75 154.367188 238.75 151.605469 C 238.75 148.84375 236.511719 146.605469 233.75 146.605469 L 214.808594 146.605469 L 214.808594 132.992188 L 233.75 132.992188 C 236.511719 132.992188 238.75 130.753906 238.75 127.992188 C 238.75 125.230469 236.511719 122.992188 233.75 122.992188 L 214.808594 122.992188 L 214.808594 109.394531 Z M 109.734375 246 C 101.441406 246 94.140625 240.898438 91.066406 233.535156 C 94.710938 232.882812 98.265625 231.773438 101.6875 230.203125 C 106.65625 227.921875 111.101562 224.796875 114.898438 220.921875 C 116.828125 218.949219 116.792969 215.78125 114.820312 213.851562 C 112.847656 211.917969 109.683594 211.953125 107.75 213.925781 C 104.8125 216.925781 101.371094 219.34375 97.515625 221.113281 C 93.445312 222.980469 89.128906 224.015625 84.6875 224.195312 C 65.652344 223.882812 50.183594 208.167969 50.183594 189.105469 C 50.183594 183.082031 51.730469 177.148438 54.660156 171.941406 C 55.367188 170.6875 55.496094 169.1875 55.019531 167.832031 C 54.539062 166.472656 53.5 165.386719 52.164062 164.851562 C 37.03125 158.773438 27.25 144.304688 27.25 127.992188 C 27.25 111.675781 37.027344 97.214844 52.160156 91.148438 C 55.136719 89.542969 55.96875 87.179688 54.664062 84.0625 C 51.734375 78.839844 50.183594 72.898438 50.183594 66.878906 C 50.183594 47.816406 65.652344 32.101562 84.6875 31.789062 C 89.101562 31.96875 93.417969 33.003906 97.515625 34.871094 C 101.375 36.644531 104.816406 39.0625 107.742188 42.066406 C 108.722656 43.070312 110.023438 43.574219 111.324219 43.574219 C 112.582031 43.574219 113.839844 43.105469 114.8125 42.15625 C 116.789062 40.230469 116.832031 37.0625 114.902344 35.085938 C 111.117188 31.199219 106.667969 28.070312 101.675781 25.777344 C 98.246094 24.214844 94.695312 23.109375 91.0625 22.453125 C 94.136719 15.09375 101.441406 10 109.734375 10 C 120.882812 10 129.953125 19.066406 129.953125 30.214844 L 129.953125 91.515625 L 114.386719 91.515625 L 101.121094 78.25 C 102.535156 75.671875 103.285156 72.769531 103.285156 69.75 C 103.285156 65.011719 101.441406 60.554688 98.089844 57.207031 C 91.175781 50.289062 79.921875 50.289062 73.003906 57.207031 C 69.652344 60.554688 67.808594 65.011719 67.808594 69.75 C 67.808594 74.484375 69.652344 78.941406 73.003906 82.289062 C 76.460938 85.75 81.003906 87.476562 85.546875 87.476562 C 88.476562 87.476562 91.40625 86.753906 94.042969 85.316406 L 108.78125 100.050781 C 109.847656 101.003906 111.023438 101.492188 112.316406 101.515625 L 129.953125 101.515625 L 129.953125 122.992188 L 98.617188 122.992188 C 96.453125 115.644531 89.644531 110.265625 81.597656 110.265625 C 71.824219 110.265625 63.871094 118.21875 63.871094 127.992188 C 63.871094 137.773438 71.824219 145.734375 81.597656 145.734375 C 89.648438 145.734375 96.457031 140.347656 98.621094 132.992188 L 129.953125 132.992188 L 129.953125 154.46875 L 112.316406 154.46875 C 112.179688 154.46875 112.066406 154.476562 111.960938 154.488281 C 110.800781 154.570312 109.664062 155.050781 108.777344 155.933594 L 94.042969 170.683594 C 87.3125 167.015625 78.691406 168.019531 73.003906 173.707031 C 69.648438 177.0625 67.804688 181.519531 67.808594 186.261719 C 67.808594 190.996094 69.65625 195.441406 73.003906 198.777344 C 76.460938 202.238281 81.003906 203.964844 85.546875 203.964844 C 90.089844 203.964844 94.628906 202.238281 98.085938 198.785156 C 101.433594 195.441406 103.28125 190.996094 103.285156 186.261719 C 103.289062 183.234375 102.535156 180.328125 101.121094 177.746094 L 114.386719 164.46875 L 129.953125 164.46875 L 129.953125 225.785156 C 129.953125 236.933594 120.882812 246 109.734375 246 Z M 93.285156 69.75 C 93.285156 71.816406 92.480469 73.757812 91.019531 75.21875 C 88.003906 78.238281 83.09375 78.238281 80.074219 75.21875 C 78.613281 73.757812 77.808594 71.816406 77.808594 69.75 C 77.808594 67.683594 78.613281 65.738281 80.074219 64.277344 C 83.09375 61.261719 88.003906 61.261719 91.019531 64.277344 C 92.480469 65.738281 93.285156 67.683594 93.285156 69.75 Z M 89.34375 127.992188 C 89.34375 132.261719 85.867188 135.734375 81.597656 135.734375 C 77.339844 135.734375 73.871094 132.261719 73.871094 127.992188 C 73.871094 123.734375 77.339844 120.265625 81.597656 120.265625 C 85.867188 120.265625 89.34375 123.730469 89.34375 127.992188 Z M 93.285156 186.253906 C 93.285156 188.316406 92.480469 190.25 91.019531 191.707031 C 88.003906 194.722656 83.09375 194.726562 80.070312 191.703125 C 78.613281 190.25 77.808594 188.316406 77.808594 186.253906 C 77.804688 184.1875 78.613281 182.242188 80.074219 180.78125 C 83.09375 177.761719 88.003906 177.761719 91.019531 180.777344 C 91.019531 180.78125 91.019531 180.78125 91.019531 180.78125 C 92.484375 182.246094 93.289062 184.1875 93.285156 186.253906 Z M 204.808594 186.328125 L 193.28125 197.855469 L 139.953125 197.855469 L 139.953125 183.039062 L 184.988281 183.039062 C 187.75 183.039062 189.988281 180.800781 189.988281 178.039062 L 189.988281 150.429688 C 189.988281 147.667969 187.75 145.429688 184.988281 145.429688 C 182.226562 145.429688 179.988281 147.667969 179.988281 150.429688 L 179.988281 173.039062 L 139.953125 173.039062 L 139.953125 82.960938 L 179.988281 82.960938 L 179.988281 105.515625 C 179.988281 108.277344 182.226562 110.515625 184.988281 110.515625 C 187.75 110.515625 189.988281 108.277344 189.988281 105.515625 L 189.988281 77.960938 C 189.988281 75.199219 187.75 72.960938 184.988281 72.960938 L 139.953125 72.960938 L 139.953125 58.132812 L 193.277344 58.132812 L 204.808594 69.671875 Z M 204.808594 186.328125 "/>
        <path style=" stroke:none;fill-rule:nonzero;fill:rgb(0%,0%,0%);fill-opacity:1;" d="M 184.988281 122.980469 C 182.226562 122.980469 179.988281 125.21875 179.988281 127.980469 L 179.988281 127.992188 C 179.988281 130.753906 182.226562 132.984375 184.988281 132.984375 C 187.75 132.984375 189.988281 130.742188 189.988281 127.980469 C 189.988281 125.21875 187.75 122.980469 184.988281 122.980469 Z M 184.988281 122.980469 "/>
    </g>
</svg>
